<svg width="74" height="104" viewBox="0 0 74 104" fill="none" xmlns="http://www.w3.org/2000/svg">
<path d="M72.7688 27.2938L46.9563 1.48125C46.2188 0.74375 45.4813 0.375 44.375 0.375H7.5C3.44375 0.375 0.125 3.69375 0.125 7.75V96.25C0.125 100.306 3.44375 103.625 7.5 103.625H66.5C70.5563 103.625 73.875 100.306 73.875 96.25V29.875C73.875 28.7687 73.5063 28.0313 72.7688 27.2938ZM44.375 9.225L65.025 29.875H44.375V9.225ZM66.5 96.25H7.5V7.75H37V29.875C37 33.9313 40.3187 37.25 44.375 37.25H66.5V96.25Z" fill="#FF0006"/>
<path d="M15 44H59.25V51.375H15V44Z" fill="#FF0006"/>
<path d="M15 61.375H59.25V68.75H15V61.375Z" fill="#FF0006"/>
<path d="M15 78.75H59.25V86.125H15V78.75Z" fill="#FF0006"/>
</svg>
